<?xml version="1.0" encoding="UTF-8" standalone="no"?>
<svg
   viewBox="0 0 600 512"
   version="1.1"
   id="svg850"
   sodipodi:docname="ods.svg"
   inkscape:version="1.1 (c68e22c387, 2021-05-23)"
   width="600"
   height="512"
   xmlns:inkscape="http://www.inkscape.org/namespaces/inkscape"
   xmlns:sodipodi="http://sodipodi.sourceforge.net/DTD/sodipodi-0.dtd"
   xmlns="http://www.w3.org/2000/svg"
   xmlns:svg="http://www.w3.org/2000/svg">
  <defs
     id="defs854" />
  <sodipodi:namedview
     id="namedview852"
     pagecolor="#ffffff"
     bordercolor="#666666"
     borderopacity="1.0"
     inkscape:pageshadow="2"
     inkscape:pageopacity="0.0"
     inkscape:pagecheckerboard="false"
     showgrid="false"
     inkscape:zoom="0.74121094"
     inkscape:cx="-26.982872"
     inkscape:cy="118.05007"
     inkscape:window-width="1920"
     inkscape:window-height="1009"
     inkscape:window-x="1272"
     inkscape:window-y="-8"
     inkscape:window-maximized="1"
     inkscape:current-layer="svg850"
     scale-x="1" />
  <polygon
     class="fil3 str1"
     points="30279.07,103026.43 15545.66,77445.57 811.64,51864.91 15545.66,26284.05 30279.07,703.39 59747.29,703.39 89215.31,703.39 103948.73,26284.05 118682.74,51864.91 103948.73,77445.57 89215.31,103026.43 59747.29,103026.43 "
     id="polygon863"
     transform="matrix(0.00491612,0,0,0.00491612,6.2756446,1.0258787)"
     style="clip-rule:evenodd;fill:#e6e6e6;fill-opacity:1;fill-rule:nonzero;stroke:#e6e6e6;stroke-width:1406.77;stroke-miterlimit:22.9256;stroke-opacity:1;image-rendering:optimizeQuality;shape-rendering:geometricPrecision;text-rendering:geometricPrecision" />
  <g
     id="g2125"
     transform="matrix(1.2079036,0,0,1.2079036,-36.667457,-62.51933)"
     style="fill:#000000">
    <path
       class="fil0"
       d="m 120.89639,220.93785 c 2.17465,-22.88007 16.42112,-39.0468 40.69742,-37.12909 26.68763,2.10872 27.79399,21.56243 39.67225,37.16118 l -80.36967,-0.0321 z m 177.43263,-37.46039 c -1.04803,-14.8888 -7.58218,-29.60185 -1.78337,-43.67926 14.3868,-34.92227 74.8295,-30.89749 71.71582,22.08894 39.72969,0.45051 52.51401,22.88511 39.53447,59.36255 l -48.53319,0.20539 c -16.37042,47.50797 -60.73343,46.84618 -76.53761,-0.35669 -19.69204,-0.003 -45.01806,3.82871 -60.28043,-6.49189 -46.30865,-31.31332 10.83444,-99.06523 49.68262,-54.44778 7.24665,8.32256 5.71009,14.6885 10.55046,23.23841 l 15.65118,0.0803 z m 116.39155,55.23213 c 28.17853,-32.52112 18.31098,-71.49182 -11.16408,-87.19456 -19.48918,-10.38397 -13.3979,1.59404 -22.45915,-20.02672 -7.50778,-17.91541 -29.21388,-34.124437 -55.83813,-31.537313 -25.4359,2.473003 -39.95284,19.320973 -47.48428,39.846353 -45.60036,-25.23814 -82.07779,-2.88463 -88.74802,34.1743 -25.72244,-8.81444 -44.35542,-13.22804 -65.83332,5.07449 -12.97699,11.05759 -27.717888,34.38223 -16.30619,59.02871 l 159.25353,0.34316 c 26.20504,4.65024 33.20487,58.09476 88.7142,21.03922 l 9.87683,-16.42875 c 5.09142,-8.48988 7.35988,-4.86825 24.13599,-4.5133 8.66992,0.18173 17.16998,0.23328 25.85258,0.19441 z"
       id="path852"
       style="clip-rule:evenodd;fill:#000000;fill-rule:evenodd;stroke-width:0.00423924;image-rendering:optimizeQuality;shape-rendering:geometricPrecision;text-rendering:geometricPrecision" />
    <path
       class="fil2 str0"
       d="m 125.74354,293.54874 7.21705,-36.58223 h -23.86302 l -1.70307,8.66234 h 8.93025 l -5.51148,27.91989 h 14.93022 z m 38.85407,-36.89496 c -14.64623,0 -23.95768,6.62712 -26.31491,18.57805 -2.35808,12.00252 4.33327,18.63044 18.9795,18.63044 14.43156,0 23.88583,-6.62797 26.24475,-18.63044 2.35639,-11.95093 -4.47778,-18.57805 -18.90938,-18.57805 z m -1.54753,7.87969 c 5.21481,0 6.715,2.87026 5.16746,10.69836 -1.53655,7.82814 -4.19129,10.74995 -9.40776,10.74995 -5.35764,0 -6.84519,-2.92181 -5.31033,-10.74995 1.54923,-7.82814 4.19214,-10.69836 9.55063,-10.69836 z m 43.63869,29.01527 7.21705,-36.58223 h -23.86217 l -1.70307,8.66234 h 8.93025 l -5.51232,27.91989 h 14.93022 z m 30.36419,0 7.21706,-36.58223 H 220.407 l -1.70308,8.66234 h 8.93111 l -5.51233,27.91989 h 14.93022 z m 38.85408,-36.89496 c -14.64539,0 -23.95768,6.62712 -26.31491,18.57805 -2.35723,12.00252 4.33496,18.63044 18.9795,18.63044 14.43325,0 23.88583,-6.62797 26.24475,-18.63044 2.35638,-11.95093 -4.47697,-18.57805 -18.90938,-18.57805 z m -1.54753,7.87969 c 5.21481,0 6.71499,2.87026 5.16746,10.69836 -1.53655,7.82814 -4.19129,10.74995 -9.40692,10.74995 -5.35848,0 -6.84603,-2.92181 -5.31032,-10.74995 1.54838,-7.82814 4.19214,-10.69836 9.54978,-10.69836 z m 52.12942,-7.87969 c -14.64539,0 -23.95683,6.62712 -26.31491,18.57805 -2.35808,12.00252 4.33411,18.63044 18.98035,18.63044 14.43156,0 23.88583,-6.62797 26.2439,-18.63044 2.35639,-11.95093 -4.47778,-18.57805 -18.90938,-18.57805 z m -1.54753,7.87969 c 5.21481,0 6.71584,2.87026 5.16746,10.69836 -1.53655,7.82814 -4.19129,10.74995 -9.40691,10.74995 -5.35849,0 -6.84604,-2.92181 -5.31118,-10.74995 1.54923,-7.82814 4.19299,-10.69836 9.55063,-10.69836 z m 43.63954,29.01527 7.21705,-36.58223 h -23.86302 l -1.70307,8.66234 h 8.93025 l -5.51148,27.91989 h 14.93023 z m 38.85408,-36.89496 c -14.64539,0 -23.95769,6.62712 -26.31492,18.57805 -2.35892,12.00252 4.33327,18.63044 18.9795,18.63044 14.43156,0 23.88583,-6.62797 26.24476,-18.63044 2.35638,-11.95093 -4.47779,-18.57805 -18.90939,-18.57805 z m -1.54754,7.87969 c 5.21482,0 6.715,2.87026 5.16746,10.69836 -1.53655,7.82814 -4.19129,10.74995 -9.40776,10.74995 -5.35764,0 -6.84518,-2.92181 -5.31033,-10.74995 1.54923,-7.82814 4.19215,-10.69836 9.55063,-10.69836 z m -271.6541,55.73503 c -14.64539,0 -23.95684,6.62627 -26.31407,18.57719 -2.35892,12.00337 4.33327,18.63129 18.9795,18.63129 14.43156,0 23.88583,-6.62796 26.24391,-18.63129 2.35723,-11.95092 -4.47698,-18.57719 -18.90938,-18.57719 z m -1.54754,7.87968 c 5.21567,0 6.71585,2.87027 5.16832,10.69756 -1.53741,7.82813 -4.19299,10.74995 -9.40777,10.74995 -5.35848,0 -6.84603,-2.92182 -5.31117,-10.74995 1.55008,-7.82729 4.19299,-10.69756 9.55062,-10.69756 z m 43.63955,29.01527 7.2162,-36.58307 h -23.86217 l -1.70223,8.66318 h 8.92941 l -5.51233,27.91989 h 14.93107 z m 30.36334,0 7.21705,-36.58307 h -23.86217 l -1.70307,8.66318 h 8.93025 l -5.51232,27.91989 h 14.93022 z m 38.85492,-36.89495 c -14.64623,0 -23.95768,6.62627 -26.31491,18.57719 -2.35892,12.00337 4.33327,18.63129 18.9795,18.63129 14.43156,0 23.88583,-6.62796 26.24391,-18.63129 2.35723,-11.95092 -4.47698,-18.57719 -18.90854,-18.57719 z m -1.54753,7.87968 c 5.21482,0 6.715,2.87027 5.16746,10.69756 -1.53655,7.82813 -4.19214,10.74995 -9.40776,10.74995 -5.35764,0 -6.84603,-2.92182 -5.31033,-10.74995 1.54923,-7.82729 4.19214,-10.69756 9.55063,-10.69756 z m 43.63869,29.01527 7.21706,-36.58307 h -23.86303 l -1.70222,8.66318 h 8.92941 l -5.51148,27.91989 h 14.93022 z m 30.36335,0 7.21705,-36.58307 h -23.86217 l -1.70308,8.66318 h 8.93111 l -5.51233,27.91989 h 14.92938 z m 30.36504,0 7.2162,-36.58307 h -23.86302 l -1.70307,8.66318 h 8.9311 l -5.51232,27.91989 h 14.93107 z m 30.36334,0 7.21621,-36.58307 h -23.86218 l -1.70307,8.66318 h 8.9311 l -5.51317,27.91989 h 14.93107 z m 30.36419,0 7.21621,-36.58307 h -23.86302 l -1.70307,8.66318 h 8.9311 l -5.51233,27.91989 h 14.93107 z m -220.76367,63.61387 7.2162,-36.58223 h -23.86217 l -1.70308,8.66318 h 8.93026 l -5.51233,27.91909 h 14.93107 z m 124.23911,0 7.2162,-36.58223 H 295.9202 l -1.70308,8.66318 h 8.93111 l -5.51318,27.91909 h 14.93107 z m 38.85407,-36.89496 c -14.64539,0 -23.95768,6.62712 -26.31406,18.57805 -2.35893,12.00252 4.33326,18.63044 18.97865,18.63044 14.43241,0 23.88583,-6.62797 26.24391,-18.63044 2.35807,-11.95093 -4.47613,-18.57805 -18.90854,-18.57805 z m -1.54838,7.87969 c 5.21651,0 6.71585,2.87026 5.16831,10.69836 -1.5374,7.82814 -4.19214,10.74995 -9.40692,10.74995 -5.35933,0 -6.84683,-2.92181 -5.31117,-10.74995 1.54923,-7.82814 4.19214,-10.69836 9.54978,-10.69836 z m 59.28564,29.01527 7.21705,-36.58223 h -23.86302 l -1.70222,8.66318 h 8.92941 l -5.51148,27.91909 h 14.93022 z"
       id="path860"
       style="clip-rule:evenodd;fill:#000000;fill-rule:evenodd;stroke-width:0.00423924;image-rendering:optimizeQuality;shape-rendering:geometricPrecision;text-rendering:geometricPrecision" />
  </g>
</svg>
