<?xml version="1.0" encoding="UTF-8" standalone="no"?>
<!-- Creator: CorelDRAW 2019 (64-Bit) -->

<svg
   xml:space="preserve"
   width="59.9353mm"
   height="52.0282mm"
   version="1.1"
   style="shape-rendering:geometricPrecision; text-rendering:geometricPrecision; image-rendering:optimizeQuality; fill-rule:evenodd; clip-rule:evenodd"
   viewBox="0 0 119494.38 103729.82"
   id="svg866"
   sodipodi:docname="ods.svg"
   inkscape:version="1.1 (c68e22c387, 2021-05-23)"
   xmlns:inkscape="http://www.inkscape.org/namespaces/inkscape"
   xmlns:sodipodi="http://sodipodi.sourceforge.net/DTD/sodipodi-0.dtd"
   xmlns="http://www.w3.org/2000/svg"
   xmlns:svg="http://www.w3.org/2000/svg"><sodipodi:namedview
   id="namedview868"
   pagecolor="#ffffff"
   bordercolor="#666666"
   borderopacity="1.0"
   inkscape:pageshadow="2"
   inkscape:pageopacity="0.0"
   inkscape:pagecheckerboard="0"
   inkscape:document-units="mm"
   showgrid="false"
   inkscape:zoom="3.859806"
   inkscape:cx="113.21813"
   inkscape:cy="98.321005"
   inkscape:window-width="1920"
   inkscape:window-height="1009"
   inkscape:window-x="1272"
   inkscape:window-y="-8"
   inkscape:window-maximized="1"
   inkscape:current-layer="Livello_x0020_1" />
 <defs
   id="defs849">
  <style
   type="text/css"
   id="style847">
   <![CDATA[
    .str1 {stroke:#2B2A29;stroke-width:1406.77;stroke-miterlimit:22.9256}
    .str0 {stroke:black;stroke-width:151.92;stroke-miterlimit:22.9256}
    .fil3 {fill:none}
    .fil0 {fill:#030303}
    .fil1 {fill:white}
    .fil2 {fill:black;fill-rule:nonzero}
   ]]>
  </style>
 </defs>
 <g
   id="Livello_x0020_1"
   inkscape:label="Livello 1"
   inkscape:groupmode="layer">
  <metadata
   id="CorelCorpID_0Corel-Layer" />
  <g
   id="_1665499336432">
   <g
   id="g858">
    <path
   class="fil0"
   d="m 25251.7,42559.8 c 512.98,-5397.21 3873.6,-9210.8 9600.17,-8758.43 6295.38,497.43 6556.36,5086.39 9358.34,8766 l -18958.51,-7.58 z m 41854.82,-8836.58 c -247.22,-3512.14 -1788.57,-6982.82 -420.68,-10303.56 3393.72,-8237.86 17651.63,-7288.45 16917.14,5210.59 9371.89,106.27 12387.6,5398.4 9325.84,14003.11 l -11448.56,48.45 c -3861.64,11206.72 -14326.49,11050.61 -18054.56,-84.14 -4645.18,-0.8 -10619.37,903.16 -14219.63,-1531.38 -10923.81,-7386.54 2555.75,-23368.63 11719.7,-12843.76 1709.42,1963.22 1346.96,3464.89 2488.76,5481.74 l 3691.98,18.94 z M 94562.28,46752 c 6647.07,-7671.45 4319.4,-16864.3 -2633.51,-20568.44 -4597.33,-2449.49 -3160.45,376.02 -5297.92,-4724.13 -1771.02,-4226.09 -6891.3,-8049.66 -13171.73,-7439.38 -6000.11,583.36 -9424.53,4557.65 -11201.13,9399.41 C 51501.26,17466 42896.55,22739 41323.1,31480.88 35255.4,29401.63 30860.04,28360.5 25793.59,32677.91 22732.43,35286.3 19255.18,40788.38 21947.1,46602.27 l 37566.53,80.95 c 6181.54,1096.95 7832.74,13704.05 20926.91,4962.97 l 2329.86,-3875.4 c 1201.02,-2002.69 1736.13,-1148.38 5693.47,-1064.65 2045.16,42.87 4050.25,55.03 6098.4,45.86 z"
   id="path852" />
    <path
   class="fil1"
   d="m 67707.23,33536.81 -3692.18,-18.94 c -1141.61,-2016.85 -779.35,-3518.52 -2488.76,-5481.74 -9163.95,-10524.86 -22643.51,5457.22 -11719.5,12843.76 3600.07,2434.54 9574.46,1530.58 14219.43,1531.18 3728.06,11134.94 14193.11,11290.85 18054.76,84.33 l 11448.36,-48.45 C 96591.1,33842.24 93575.4,28550.1 84203.7,28443.84 84937.99,15944.79 70680.08,14995.38 67286.56,23233.25 c -1368.09,3320.74 173.25,6791.42 420.68,10303.56 z"
   id="path854" />
    <path
   class="fil1"
   d="m 25852.21,42373.39 18958.51,7.58 c -2801.78,-3679.62 -3062.96,-8268.57 -9358.34,-8766 -5726.57,-452.38 -9086.99,3361.22 -9600.17,8758.43 z"
   id="path856" />
   </g>
   <path
   class="fil2 str0"
   d="m 26395.1,59688.08 1702.44,-8629.43 h -5629.08 l -401.74,2043.37 h 2106.57 l -1300.11,6586.06 h 3521.91 z m 9165.34,-8703.2 c -3454.92,0 -5651.41,1563.28 -6207.46,4382.4 -556.25,2831.29 1022.18,4394.76 4477.1,4394.76 3404.28,0 5634.46,-1563.48 6190.91,-4394.76 555.85,-2819.12 -1056.27,-4382.4 -4460.56,-4382.4 z m -365.05,1858.75 c 1230.13,0 1584.01,677.07 1218.96,2523.65 -362.46,1846.59 -988.69,2535.82 -2219.21,2535.82 -1263.82,0 -1614.72,-689.23 -1252.66,-2535.82 365.45,-1846.59 988.89,-2523.65 2252.91,-2523.65 z m 10293.99,6844.45 1702.44,-8629.43 h -5628.88 l -401.74,2043.37 h 2106.57 l -1300.31,6586.06 h 3521.91 z m 7162.65,0 1702.44,-8629.43 h -5629.08 l -401.74,2043.37 h 2106.77 l -1300.31,6586.06 h 3521.91 z m 9165.34,-8703.2 c -3454.72,0 -5651.41,1563.28 -6207.46,4382.4 -556.05,2831.29 1022.58,4394.76 4477.1,4394.76 3404.68,0 5634.46,-1563.48 6190.91,-4394.76 555.85,-2819.12 -1056.08,-4382.4 -4460.56,-4382.4 z m -365.05,1858.75 c 1230.13,0 1584.01,677.07 1218.96,2523.65 -362.46,1846.59 -988.69,2535.82 -2219.01,2535.82 -1264.02,0 -1614.92,-689.23 -1252.66,-2535.82 365.25,-1846.59 988.89,-2523.65 2252.71,-2523.65 z M 73749.2,50984.88 c -3454.72,0 -5651.21,1563.28 -6207.46,4382.4 -556.25,2831.29 1022.38,4394.76 4477.3,4394.76 3404.28,0 5634.46,-1563.48 6190.71,-4394.76 555.85,-2819.12 -1056.27,-4382.4 -4460.56,-4382.4 z m -365.05,1858.75 c 1230.13,0 1584.21,677.07 1218.96,2523.65 -362.46,1846.59 -988.69,2535.82 -2219.01,2535.82 -1264.02,0 -1614.92,-689.23 -1252.86,-2535.82 365.45,-1846.59 989.09,-2523.65 2252.91,-2523.65 z m 10294.19,6844.45 1702.44,-8629.43 H 79751.7 l -401.74,2043.37 h 2106.57 l -1300.11,6586.06 h 3521.91 z m 9165.34,-8703.2 c -3454.72,0 -5651.41,1563.28 -6207.46,4382.4 -556.45,2831.29 1022.18,4394.76 4477.1,4394.76 3404.28,0 5634.46,-1563.48 6190.91,-4394.76 555.85,-2819.12 -1056.27,-4382.4 -4460.56,-4382.4 z m -365.05,1858.75 c 1230.13,0 1584.01,677.07 1218.96,2523.65 -362.46,1846.59 -988.69,2535.82 -2219.21,2535.82 -1263.82,0 -1614.72,-689.23 -1252.66,-2535.82 365.45,-1846.59 988.89,-2523.65 2252.91,-2523.65 z M 28397.78,65991.04 c -3454.72,0 -5651.21,1563.08 -6207.26,4382.2 -556.45,2831.49 1022.18,4394.96 4477.1,4394.96 3404.28,0 5634.46,-1563.48 6190.71,-4394.96 556.05,-2819.12 -1056.08,-4382.2 -4460.56,-4382.2 z m -365.05,1858.75 c 1230.33,0 1584.21,677.07 1219.16,2523.46 -362.66,1846.59 -989.09,2535.82 -2219.21,2535.82 -1264.02,0 -1614.92,-689.23 -1252.86,-2535.82 365.65,-1846.39 989.09,-2523.46 2252.91,-2523.46 z m 10294.19,6844.45 1702.24,-8629.63 h -5628.88 l -401.54,2043.57 h 2106.37 l -1300.31,6586.06 h 3522.11 z m 7162.45,0 1702.44,-8629.63 h -5628.88 l -401.74,2043.57 h 2106.57 l -1300.31,6586.06 h 3521.91 z m 9165.54,-8703.2 c -3454.92,0 -5651.41,1563.08 -6207.46,4382.2 -556.45,2831.49 1022.18,4394.96 4477.1,4394.96 3404.28,0 5634.46,-1563.48 6190.71,-4394.96 556.05,-2819.12 -1056.08,-4382.2 -4460.36,-4382.2 z m -365.05,1858.75 c 1230.13,0 1584.01,677.07 1218.96,2523.46 -362.46,1846.59 -988.89,2535.82 -2219.21,2535.82 -1263.82,0 -1614.92,-689.23 -1252.66,-2535.82 365.45,-1846.39 988.89,-2523.46 2252.91,-2523.46 z m 10293.99,6844.45 1702.44,-8629.63 h -5629.08 l -401.54,2043.57 h 2106.37 l -1300.11,6586.06 h 3521.91 z m 7162.45,0 1702.44,-8629.63 h -5628.88 l -401.74,2043.57 h 2106.77 l -1300.31,6586.06 h 3521.71 z m 7162.85,0 1702.24,-8629.63 h -5629.08 l -401.74,2043.57 h 2106.77 l -1300.31,6586.06 h 3522.11 z m 7162.45,0 1702.24,-8629.63 h -5628.88 l -401.74,2043.57 h 2106.77 l -1300.51,6586.06 h 3522.11 z m 7162.65,0 1702.24,-8629.63 h -5629.08 l -401.74,2043.57 h 2106.77 l -1300.31,6586.06 h 3522.11 z M 41158.01,89700.2 42860.25,81070.77 h -5628.88 l -401.74,2043.57 h 2106.57 l -1300.31,6585.87 H 41158 Z m 29306.93,0 1702.24,-8629.43 H 66538.3 l -401.74,2043.57 h 2106.77 l -1300.51,6585.87 h 3522.11 z M 79630.28,80997 c -3454.72,0 -5651.41,1563.28 -6207.26,4382.4 -556.45,2831.29 1022.18,4394.76 4476.9,4394.76 3404.48,0 5634.46,-1563.48 6190.71,-4394.76 556.25,-2819.12 -1055.88,-4382.4 -4460.36,-4382.4 z m -365.25,1858.75 c 1230.53,0 1584.21,677.07 1219.16,2523.65 -362.66,1846.59 -988.89,2535.82 -2219.01,2535.82 -1264.22,0 -1615.11,-689.23 -1252.86,-2535.82 365.45,-1846.59 988.89,-2523.65 2252.71,-2523.65 z M 93250,89700.2 94952.44,81070.77 h -5629.08 l -401.54,2043.57 h 2106.37 l -1300.11,6585.87 h 3521.91 z"
   id="path860" />
  </g>
  <polygon
   class="fil3 str1"
   points="59747.29,703.39 89215.31,703.39 103948.73,26284.05 118682.74,51864.91 103948.73,77445.57 89215.31,103026.43 59747.29,103026.43 30279.07,103026.43 15545.66,77445.57 811.64,51864.91 15545.66,26284.05 30279.07,703.39 "
   id="polygon863" />
 </g>
</svg>
